<?xml version="1.0" standalone="no"?>
<!DOCTYPE svg PUBLIC "-//W3C//DTD SVG 20010904//EN"
 "http://www.w3.org/TR/2001/REC-SVG-20010904/DTD/svg10.dtd">
<svg version="1.0" xmlns="http://www.w3.org/2000/svg"
 width="700.000000pt" height="700.000000pt" viewBox="0 0 700.000000 700.000000"
 preserveAspectRatio="xMidYMid meet">
<metadata>
Created by potrace 1.14, written by Peter Selinger 2001-2017
</metadata>
<g transform="translate(0.000000,700.000000) scale(0.100000,-0.100000)"
fill="#000000" stroke="none">
<path d="M4158 6114 c-61 -15 -110 -46 -153 -96 -35 -42 -51 -85 -140 -373
-20 -66 -43 -138 -51 -160 -7 -22 -29 -92 -48 -155 -20 -63 -53 -171 -75 -240
-22 -69 -71 -226 -109 -350 -39 -124 -138 -443 -222 -710 -83 -267 -196 -629
-251 -805 -55 -176 -111 -354 -124 -395 -13 -41 -81 -257 -150 -480 -69 -223
-141 -452 -159 -510 -19 -58 -54 -170 -79 -250 -25 -80 -60 -190 -77 -245 -46
-140 -48 -222 -11 -302 90 -189 342 -224 480 -66 42 47 55 82 156 408 20 66
40 131 45 145 5 14 38 120 74 235 35 116 71 230 79 255 9 25 20 61 25 80 6 19
49 159 97 310 48 151 93 295 100 320 12 40 90 291 146 469 11 35 45 143 75
240 30 97 64 205 75 240 11 35 45 143 75 240 30 97 77 246 104 331 106 338
202 646 206 660 4 17 108 345 202 640 57 178 65 215 66 285 1 71 -2 86 -29
134 -66 120 -198 179 -327 145z"/>
<path d="M1660 4943 c-25 -9 -58 -25 -73 -35 -15 -11 -303 -295 -639 -631
-469 -470 -615 -622 -631 -657 -31 -70 -29 -180 5 -246 20 -38 178 -202 643
-667 339 -339 630 -623 648 -631 176 -80 360 -1 417 178 16 49 8 150 -15 202
-12 26 -182 204 -519 541 l-501 503 501 502 c329 331 507 517 520 543 29 60
27 185 -4 247 -29 58 -82 111 -140 138 -58 28 -154 33 -212 13z"/>
<path d="M5161 4943 c-61 -21 -101 -49 -138 -98 -63 -81 -78 -174 -46 -276 15
-51 43 -81 522 -562 l506 -507 -501 -503 c-329 -330 -507 -516 -520 -542 -28
-59 -26 -185 3 -245 30 -59 83 -113 141 -142 65 -31 177 -31 245 2 70 33 1274
1238 1307 1307 40 85 34 193 -16 274 -13 20 -297 311 -633 646 -468 468 -620
615 -657 632 -59 28 -154 35 -213 14z"/>
</g>
</svg>
